

<svg version="1.1" id="Layer_1" xmlns="http://www.w3.org/2000/svg" x="0px" y="0px" viewBox="0 0 155 155" style="">
<style type="text/css">
	.st0{fill:#00A9CE;}
	.st1{fill:#FFFFFF;}
</style>
<g>
	<g>
		<path class="st0" d="M11.3,152.2c-4.7,0-8.5-3.8-8.5-8.5V11.3c0-4.7,3.8-8.5,8.5-8.5h132.3c4.7,0,8.5,3.8,8.5,8.5v132.3
			c0,4.7-3.8,8.5-8.5,8.5L11.3,152.2L11.3,152.2z"></path>
	</g>
	<g>
		<path class="st1" d="M143.7,5.7c3.1,0,5.7,2.5,5.7,5.7v132.3c0,3.1-2.5,5.7-5.7,5.7H11.3c-3.1,0-5.7-2.5-5.7-5.7V11.3
			c0-3.1,2.5-5.7,5.7-5.7L143.7,5.7 M143.7,0H11.3C5.1,0,0,5.1,0,11.3v132.3c0,6.3,5.1,11.3,11.3,11.3h132.3
			c6.3,0,11.3-5.1,11.3-11.3V11.3C155,5.1,149.9,0,143.7,0L143.7,0z"></path>
	</g>
</g>
<g>
	<g>
		<path class="st1" d="M57.2,109.1c-1.4,0.6-3,0.9-4.8,0.7c-0.1,0-0.3,0-0.4,0c-0.3,0-0.7-0.1-1-0.2c-0.2,0-0.4-0.1-0.5-0.1
			c-0.4-0.1-0.8-0.2-1.2-0.4c-0.1,0-0.2-0.1-0.3-0.1c-0.5-0.2-1-0.4-1.5-0.7c0,0,0,0-0.1,0c0,0,0,0-0.1,0c-0.5-0.3-1-0.6-1.4-0.9
			c-0.1-0.1-0.1-0.1-0.2-0.2c-0.4-0.3-0.7-0.5-1-0.8c-0.1-0.1-0.3-0.3-0.4-0.4c-0.3-0.3-0.5-0.5-0.7-0.8c-0.1-0.1-0.2-0.2-0.2-0.3
			c-1.1-1.4-1.8-3-2-4.4c-0.5-3.4-0.2-7,8.1-21.9s11.1-17,14.3-18.4c1.3-0.6,2.9-0.8,4.7-0.7c0.1,0,0.1,0,0.2,0
			c0.4,0,0.8,0.1,1.3,0.2c0.2,0,0.3,0.1,0.5,0.1c0.4,0.1,0.8,0.2,1.2,0.4c0.1,0,0.2,0.1,0.3,0.1c0.5,0.2,1.1,0.5,1.6,0.8
			c0,0,0,0,0.1,0c0,0,0,0,0.1,0c0.5,0.3,1,0.6,1.5,1c0.1,0.1,0.2,0.1,0.3,0.2c0.4,0.3,0.7,0.5,1,0.8c0.1,0.1,0.3,0.2,0.4,0.4
			c0.3,0.3,0.6,0.6,0.9,1l0.1,0.1c1.1,1.4,1.7,2.9,1.9,4.3c0.2,1.4,0.3,2.7-0.2,4.8c-0.2,0.7,0.1,1.4,0.8,1.8
			c3.7,2,9.4,5.2,12.6,6.9c0.9,0.5,2.1,0,2.3-1.1c3-14.1-3.4-25.3-15.1-31.7c-8.4-4.7-15.7-5.3-23.3-3.1c-11,3.1-15.9,12-22.3,23.6
			s-11.3,20.4-8.2,31.4c2.2,7.7,6.6,13.5,15,18.2c11.6,6.4,24.2,6,34.6-3.7c0.8-0.7,0.6-2-0.3-2.6c-3.2-1.7-8.9-4.9-12.6-7
			c-0.6-0.3-1.4-0.2-1.9,0.3C59.5,108,58.4,108.6,57.2,109.1z"></path>
	</g>
	<g>
		<path class="st1" d="M97.8,45.9c1.4-0.6,3-0.9,4.8-0.7c0.1,0,0.3,0,0.4,0c0.3,0,0.7,0.1,1,0.2c0.2,0,0.4,0.1,0.5,0.1
			c0.4,0.1,0.8,0.2,1.2,0.4c0.1,0,0.2,0.1,0.3,0.1c0.5,0.2,1,0.4,1.5,0.7c0,0,0,0,0.1,0c0,0,0,0,0.1,0c0.5,0.3,1,0.6,1.4,0.9
			c0.1,0.1,0.1,0.1,0.2,0.2c0.4,0.3,0.7,0.5,1,0.8c0.1,0.1,0.3,0.3,0.4,0.4c0.3,0.3,0.5,0.5,0.7,0.8c0.1,0.1,0.2,0.2,0.2,0.3
			c1.1,1.4,1.8,3,2,4.4c0.5,3.4,0.2,7-8.1,21.9s-11.1,17-14.3,18.4c-1.3,0.6-2.9,0.8-4.7,0.7c-0.1,0-0.1,0-0.2,0
			c-0.4,0-0.8-0.1-1.3-0.2c-0.2,0-0.3-0.1-0.5-0.1c-0.4-0.1-0.8-0.2-1.2-0.4c-0.1,0-0.2-0.1-0.3-0.1c-0.5-0.2-1.1-0.5-1.6-0.8
			c0,0,0,0-0.1,0c0,0,0,0-0.1,0c-0.5-0.3-1-0.6-1.5-1c-0.1-0.1-0.2-0.1-0.3-0.2c-0.4-0.3-0.7-0.5-1-0.8c-0.1-0.1-0.3-0.2-0.4-0.4
			c-0.3-0.3-0.6-0.6-0.9-1L77,90.4c-1.1-1.4-1.7-2.9-1.9-4.3c-0.2-1.4-0.3-2.7,0.2-4.8c0.2-0.7-0.1-1.4-0.8-1.8
			c-3.7-2-9.4-5.2-12.6-6.9c-0.9-0.5-2.1,0-2.3,1.1c-3,14.1,3.4,25.3,15.1,31.7c8.4,4.7,15.7,5.3,23.3,3.1c11-3.1,15.9-12,22.3-23.6
			s11.3-20.4,8.2-31.4c-2.2-7.7-6.6-13.5-15-18.2c-11.6-6.4-24.2-6-34.6,3.7c-0.8,0.7-0.6,2,0.3,2.6c3.2,1.7,8.9,4.9,12.6,7
			c0.6,0.3,1.4,0.2,1.9-0.3C95.5,47,96.6,46.4,97.8,45.9z"></path>
	</g>
</g>
</svg>
