<?xml version="1.0" encoding="UTF-8"?>
<svg width="16px" height="16px" viewBox="0 0 16 16" version="1.1" xmlns="http://www.w3.org/2000/svg" xmlns:xlink="http://www.w3.org/1999/xlink">
    <title>F89370F7-69E2-4F11-9C85-9090871B5AE5</title>
    <g id="Dekstop-" stroke="none" stroke-width="1" fill="none" fill-rule="evenodd">
        <g id="Screen/Busy-Topic" transform="translate(-388.000000, -3410.000000)">
            <rect fill="#FFFFFF" x="0" y="0" width="1440" height="4075"></rect>
            <rect id="BG" fill="#DEF1FE" fill-rule="nonzero" x="374" y="3394" width="927" height="48"></rect>
            <g id="Icons/18_px/info" transform="translate(388.000000, 3410.000000)" fill="#0077C8">
                <path d="M7.99034982,12.1399276 C8.24768798,12.1399276 8.45677523,12.0595094 8.61761158,11.8986731 C8.77844793,11.7378368 8.8588661,11.5287495 8.8588661,11.2714113 C8.8588661,11.0269401 8.77844793,10.8178528 8.61761158,10.6441496 C8.45677523,10.4704463 8.24768798,10.3835947 7.99034982,10.3835947 C7.73301166,10.3835947 7.52392441,10.4704463 7.36308806,10.6441496 C7.20225171,10.8178528 7.12183353,11.0269401 7.12183353,11.2714113 C7.12183353,11.5287495 7.20225171,11.7378368 7.36308806,11.8986731 C7.52392441,12.0595094 7.73301166,12.1399276 7.99034982,12.1399276 Z M7.27623643,8.93606755 L8.82026538,8.93606755 L8.82026538,3.86007238 L7.27623643,3.86007238 L7.27623643,8.93606755 Z M7.99034982,16 C6.88379574,16 5.84800965,15.7909127 4.88299156,15.3727382 C3.91797346,14.9545637 3.07197427,14.3819863 2.34499397,13.655006 C1.61801367,12.9280257 1.04543627,12.0820265 0.627261761,11.1170084 C0.209087254,10.1519903 0,9.11620426 0,8.00965018 C0,6.89022919 0.209087254,5.84800965 0.627261761,4.88299156 C1.04543627,3.91797346 1.61479694,3.07519099 2.33534379,2.35464415 C3.05589063,1.63409731 3.90188983,1.0615199 4.87334138,0.636911942 C5.84479292,0.212303981 6.88379574,0 7.99034982,0 C9.10977081,0 10.1552071,0.212303981 11.1266586,0.636911942 C12.0981102,1.0615199 12.9408926,1.63088058 13.655006,2.34499397 C14.3691194,3.05910736 14.9384801,3.90188983 15.3630881,4.87334138 C15.787696,5.84479292 16,6.89022919 16,8.00965018 C16,9.11620426 15.787696,10.1552071 15.3630881,11.1266586 C14.9384801,12.0981102 14.3659027,12.9441094 13.6453559,13.6646562 C12.924809,14.3852031 12.0820265,14.9545637 11.1170084,15.3727382 C10.1519903,15.7909127 9.10977081,16 7.99034982,16 Z" id="Info"></path>
            </g>
        </g>
    </g>
</svg>