<?xml version="1.0" encoding="UTF-8"?>
<svg id="Layer_1" xmlns="http://www.w3.org/2000/svg" viewBox="0 0 999.09 268.2">
  <defs>
    <style>.cls-1{fill:#cedd50;}.cls-1,.cls-2{stroke-width:0px;}.cls-2{fill:#fff;}</style>
  </defs>
  <path class="cls-2" d="m361.78,80.61h-27.49v120.24h-14.95v-120.24h-27.49v-13.25h69.92v13.25Z" />
  <path class="cls-2"
    d="m444.35,152.5h-49.96v18.98c0,5.01,1.73,9.22,5.19,12.62,3.4,3.46,7.55,5.19,12.45,5.19,9.43,0,16.26-4.27,20.5-12.8l11.28,7.88c-7.64,12.12-18.26,18.17-31.87,18.17-9.01,0-16.68-3.19-23.01-9.58-6.33-6.39-9.49-14.18-9.49-23.37v-40.2c0-9.13,3.16-16.89,9.49-23.28,6.39-6.45,14.06-9.67,23.01-9.67s16.59,3.22,22.92,9.67c6.33,6.51,9.49,14.27,9.49,23.28v23.1Zm-14.86-13.34v-11.55c0-4.77-1.73-8.95-5.19-12.53-3.4-3.52-7.52-5.28-12.35-5.28s-9.04,1.76-12.45,5.28c-3.46,3.46-5.19,7.64-5.19,12.53v11.55h35.19Z" />
  <path class="cls-2"
    d="m537.64,184.37c-7.64,12.12-17.94,18.17-30.89,18.17-9.61,0-17.58-3.19-23.9-9.58-6.39-6.39-9.58-14.18-9.58-23.37v-40.2c0-9.13,3.19-16.89,9.58-23.28,6.39-6.45,14.36-9.67,23.9-9.67,12.89,0,23.19,6.09,30.89,18.26l-11.28,7.88c-4.96-8.53-11.49-12.8-19.61-12.8-5.49,0-9.93,1.76-13.34,5.28-3.46,3.46-5.19,7.64-5.19,12.53v43.87c0,5.01,1.73,9.22,5.19,12.62,3.4,3.46,7.85,5.19,13.34,5.19,8.18,0,14.71-4.27,19.61-12.8l11.28,7.88Z" />
  <path class="cls-2"
    d="m629.26,200.84h-14.86v-72.97c0-5.01-1.28-9.16-3.85-12.44-2.81-3.52-6.54-5.28-11.19-5.28-8.18,0-14.92,3.73-20.23,11.19v79.5h-14.86V67.36h14.86v42.35c6.27-8.59,14.24-12.89,23.9-12.89,7.28,0,13.49,2.74,18.62,8.24,5.07,5.55,7.61,12.86,7.61,21.93v73.86Z" />
  <path class="cls-2"
    d="m723.25,167.9c0,9.01-3.19,16.77-9.58,23.28-6.33,6.45-13.97,9.67-22.92,9.67h-32.5V67.36h32.5c8.95,0,16.59,3.22,22.92,9.67,6.39,6.51,9.58,14.27,9.58,23.28v67.6Zm-20.14,14.5c3.46-3.58,5.19-7.79,5.19-12.62v-71.36c0-4.78-1.73-8.95-5.19-12.53-3.52-3.52-7.67-5.28-12.45-5.28h-17.55v106.99h17.55c4.84,0,8.98-1.73,12.45-5.19Z" />
  <path class="cls-2"
    d="m817.16,169.69c0,9.07-3.17,16.83-9.49,23.28-6.33,6.39-13.97,9.58-22.92,9.58s-16.68-3.19-23.01-9.58c-6.33-6.33-9.49-14.09-9.49-23.28v-40.29c0-9.13,3.16-16.89,9.49-23.28,6.39-6.45,14.06-9.67,23.01-9.67s16.59,3.22,22.92,9.67c6.33,6.51,9.49,14.27,9.49,23.28v40.29Zm-20.06,14.41c3.46-3.46,5.19-7.67,5.19-12.62v-43.87c0-4.83-1.73-9.04-5.19-12.62-3.46-3.46-7.58-5.19-12.35-5.19s-8.98,1.73-12.45,5.19c-3.46,3.46-5.19,7.67-5.19,12.62v43.87c0,5.01,1.73,9.22,5.19,12.62,3.4,3.46,7.55,5.19,12.45,5.19s8.95-1.73,12.35-5.19Z" />
  <path class="cls-2"
    d="m910.44,184.37c-7.64,12.12-17.94,18.17-30.89,18.17-9.61,0-17.58-3.19-23.9-9.58-6.39-6.39-9.58-14.18-9.58-23.37v-40.2c0-9.13,3.19-16.89,9.58-23.28,6.39-6.45,14.36-9.67,23.9-9.67,12.89,0,23.19,6.09,30.89,18.26l-11.28,7.88c-4.96-8.53-11.49-12.8-19.61-12.8-5.49,0-9.93,1.76-13.34,5.28-3.46,3.46-5.19,7.64-5.19,12.53v43.87c0,5.01,1.73,9.22,5.19,12.62,3.4,3.46,7.85,5.19,13.34,5.19,8.18,0,14.71-4.27,19.61-12.8l11.28,7.88Z" />
  <path class="cls-2"
    d="m990.05,152.41c6.03,5.37,9.04,12.6,9.04,21.67,0,8.54-2.89,15.43-8.68,20.68-5.79,5.19-13.76,7.79-23.9,7.79-14.86,0-26.41-7.34-34.65-22.03l11.37-7.79c5.37,11.04,13.19,16.56,23.46,16.56,11.7,0,17.55-5.16,17.55-15.49,0-6.45-4.12-11.49-12.35-15.13-2.81-1.19-5.57-2.34-8.28-3.45-2.72-1.1-5.45-2.25-8.19-3.45-5.67-2.63-9.88-5.79-12.62-9.49-3.4-4.48-5.1-10.39-5.1-17.73,0-8.77,2.74-15.64,8.23-20.59,5.55-5.01,12.77-7.52,21.67-7.52,12.95,0,23.28,6.09,30.98,18.26l-11.28,7.79c-4.36-8.47-10.92-12.71-19.7-12.71-4.18,0-7.67,1.13-10.48,3.4-3.04,2.51-4.57,6.39-4.57,11.64,0,6.09,3.91,10.92,11.73,14.5l13.43,5.64c5.31,2.39,9.43,4.87,12.35,7.43Z" />
  <rect class="cls-1" x="70.04" y="67.31" width="99.09" height="22.22" />
  <rect class="cls-1" x="70.04" y="122.99" width="99.09" height="22.22" />
  <rect class="cls-1" x="70.04" y="178.8" width="99.09" height="22.22" />
  <polygon class="cls-1"
    points="24.96 22.28 95.83 22.28 95.83 0 0 0 0 268.2 95.83 268.2 95.83 245.92 24.96 245.92 24.96 22.28" />
  <polygon class="cls-1"
    points="143.34 0 143.34 22.28 214.21 22.28 214.21 245.92 143.34 245.92 143.34 268.2 239.17 268.2 239.17 0 143.34 0" />
</svg>