<?xml version="1.0" encoding="UTF-8"?>
<svg width="16px" height="16px" viewBox="0 0 16 16" version="1.1" xmlns="http://www.w3.org/2000/svg" xmlns:xlink="http://www.w3.org/1999/xlink">
    <title>146C467A-4F5D-4465-AD13-3708FF86CDF4</title>
    <g id="Dekstop-" stroke="none" stroke-width="1" fill="none" fill-rule="evenodd">
        <g id="Screen/Busy-Topic" transform="translate(-388.000000, -3482.000000)">
            <rect fill="#FFFFFF" x="0" y="0" width="1440" height="4075"></rect>
            <g id="Error" transform="translate(374.000000, 3466.000000)" fill-rule="nonzero">
                <rect id="BG" fill="#FADEE6" x="0" y="0" width="927" height="48"></rect>
                <g id="Icons/18_px/info" transform="translate(14.000000, 16.000000)" fill="#E40046">
                    <path d="M7.31591449,8.81710214 L8.68408551,8.81710214 L8.68408551,4.25653207 L7.31591449,4.25653207 L7.31591449,8.81710214 Z M8,11.1543943 C8.19002375,11.1543943 8.35154394,11.0847189 8.48456057,10.9453682 C8.6175772,10.8060174 8.68408551,10.6476643 8.68408551,10.4703088 C8.68408551,10.280285 8.6175772,10.1155978 8.48456057,9.97624703 C8.35154394,9.83689628 8.19002375,9.7672209 8,9.7672209 C7.80997625,9.7672209 7.64845606,9.83689628 7.51543943,9.97624703 C7.3824228,10.1155978 7.31591449,10.280285 7.31591449,10.4703088 C7.31591449,10.6476643 7.3824228,10.8060174 7.51543943,10.9453682 C7.64845606,11.0847189 7.80997625,11.1543943 8,11.1543943 Z M9.06413302,15.5629454 C8.77276326,15.8543151 8.42121932,16 8.00950119,16 C7.59778306,16 7.23990499,15.8543151 6.93586698,15.5629454 L0.437054632,9.06413302 C0.145684877,8.77276326 0,8.42121932 0,8.00950119 C0,7.59778306 0.145684877,7.23990499 0.437054632,6.93586698 L6.93586698,0.437054632 C7.22723674,0.145684877 7.57878068,0 7.99049881,0 C8.40221694,0 8.76009501,0.145684877 9.06413302,0.437054632 L15.5629454,6.93586698 C15.8543151,7.22723674 16,7.57878068 16,7.99049881 C16,8.40221694 15.8543151,8.76009501 15.5629454,9.06413302 L9.06413302,15.5629454 Z" id="Alert"></path>
                </g>
            </g>
        </g>
    </g>
</svg>